<svg width="24" height="24" viewBox="0 0 24 24" fill="none" xmlns="http://www.w3.org/2000/svg">
<path d="M8.8071 12.0017L15.7468 18.5899C15.9156 18.7533 15.9996 18.9483 15.9987 19.1749C15.9978 19.4014 15.9114 19.5956 15.7397 19.7574C15.5679 19.9191 15.3633 20 15.1259 20C14.8885 20 14.6842 19.9184 14.5129 19.7552L7.45697 13.059C7.29675 12.9069 7.18053 12.7413 7.10832 12.5622C7.03611 12.383 7 12.1966 7 12.0028C7 11.809 7.03611 11.6222 7.10832 11.4423C7.18053 11.2625 7.29675 11.0965 7.45697 10.9443L14.5129 4.24141C14.6847 4.07824 14.8903 3.99779 15.1299 4.00005C15.3694 4.00231 15.575 4.08361 15.7468 4.24396C15.9156 4.40738 16 4.60237 16 4.82894C16 5.05549 15.9154 5.24915 15.7462 5.40991L8.8071 12.0017Z" fill="black"/>
</svg>
