<svg width="24" height="24" viewBox="0 0 24 24" fill="none" xmlns="http://www.w3.org/2000/svg">
<path d="M5.3308 18.7308C5.1369 18.7308 4.97224 18.663 4.83683 18.5276C4.70143 18.3921 4.63373 18.2273 4.63373 18.0333C4.63373 17.8393 4.70143 17.6739 4.83683 17.5371C4.97224 17.4002 5.1369 17.3318 5.3308 17.3318H6.34043V10.0519C6.34043 8.71027 6.75714 7.52277 7.59055 6.48943C8.42395 5.4561 9.49058 4.79104 10.7904 4.49426V3.91101C10.7904 3.57511 10.9067 3.29091 11.1392 3.05841C11.3718 2.82591 11.6574 2.70966 11.996 2.70966C12.3346 2.70966 12.6215 2.82591 12.8568 3.05841C13.092 3.29091 13.2096 3.57511 13.2096 3.91101V4.49426C14.5109 4.79104 15.5787 5.4561 16.413 6.48943C17.2473 7.52277 17.6644 8.71027 17.6644 10.0519V17.3318H18.6717C18.8626 17.3318 19.0269 17.4003 19.1646 17.5374C19.3023 17.6745 19.3712 17.84 19.3712 18.034C19.3712 18.228 19.3026 18.3926 19.1656 18.5279C19.0286 18.6631 18.8632 18.7308 18.6693 18.7308H5.3308ZM11.9983 21.45C11.5091 21.45 11.0925 21.2776 10.7486 20.9329C10.4047 20.5882 10.2327 20.1715 10.2327 19.6827H13.7673C13.7673 20.1731 13.5948 20.5902 13.2498 20.9341C12.9047 21.278 12.4876 21.45 11.9983 21.45ZM7.73943 17.3318H16.2654V10.0519C16.2654 8.87545 15.8483 7.87123 15.014 7.03928C14.1796 6.20731 13.1743 5.79133 11.9979 5.79133C10.8214 5.79133 9.81759 6.20731 8.98633 7.03928C8.15506 7.87123 7.73943 8.87545 7.73943 10.0519V17.3318Z" fill="black"/>
</svg>
