<svg width="30" height="30" viewBox="0 0 30 30" fill="none" xmlns="http://www.w3.org/2000/svg">
<path d="M6.66358 23.4135C6.4212 23.4135 6.21538 23.3288 6.04611 23.1594C5.87686 22.9901 5.79224 22.7841 5.79224 22.5416C5.79224 22.2991 5.87686 22.0924 6.04611 21.9213C6.21538 21.7502 6.4212 21.6647 6.66358 21.6647H7.92561V12.5649C7.92561 10.8878 8.4465 9.40344 9.48827 8.11177C10.53 6.82011 11.8633 5.98878 13.4881 5.61781V4.88874C13.4881 4.46887 13.6334 4.11362 13.9241 3.82299C14.2148 3.53237 14.5718 3.38705 14.995 3.38705C15.4183 3.38705 15.777 3.53237 16.071 3.82299C16.3651 4.11362 16.5121 4.46887 16.5121 4.88874V5.61781C18.1387 5.98878 19.4734 6.82011 20.5163 8.11177C21.5592 9.40344 22.0806 10.8878 22.0806 12.5649V21.6647H23.3396C23.5783 21.6647 23.7837 21.7504 23.9558 21.9217C24.1279 22.0931 24.214 22.3 24.214 22.5425C24.214 22.785 24.1284 22.9908 23.9571 23.1598C23.7858 23.3289 23.579 23.4135 23.3366 23.4135H6.66358ZM14.998 26.8125C14.3864 26.8125 13.8657 26.597 13.4358 26.1661C13.0059 25.7353 12.791 25.2143 12.791 24.6033H17.2092C17.2092 25.2163 16.9936 25.7378 16.5623 26.1676C16.131 26.5975 15.6095 26.8125 14.998 26.8125ZM9.67436 21.6647H20.3319V12.5649C20.3319 11.0943 19.8104 9.83902 18.7675 8.79909C17.7246 7.75913 16.4679 7.23915 14.9974 7.23915C13.5269 7.23915 12.2721 7.75913 11.233 8.79909C10.1939 9.83902 9.67436 11.0943 9.67436 12.5649V21.6647Z" fill="black"/>
<circle cx="23" cy="7" r="5" fill="#FF5D47"/>
</svg>
