<svg width="24" height="24" viewBox="0 0 24 24" fill="none" xmlns="http://www.w3.org/2000/svg">
<path d="M12.0024 17.3L8.04326 18.9913C7.47276 19.2355 6.93318 19.1887 6.42453 18.8509C5.91588 18.513 5.66156 18.0361 5.66156 17.4201V5.38624C5.66156 4.91377 5.82753 4.51157 6.15946 4.17964C6.49138 3.84772 6.89362 3.68176 7.36619 3.68176H16.6338C17.1064 3.68176 17.5086 3.84772 17.8405 4.17964C18.1724 4.51157 18.3384 4.91377 18.3384 5.38624V17.4201C18.3384 18.0361 18.0841 18.513 17.5754 18.8509C17.0668 19.1887 16.5288 19.2355 15.9615 18.9913L12.0024 17.3ZM12 15.7378L16.5067 17.6865C16.6093 17.7314 16.707 17.7218 16.8 17.6577C16.8929 17.5936 16.9394 17.507 16.9394 17.398V5.38846C16.9394 5.31155 16.9074 5.24103 16.8433 5.17691C16.7791 5.11281 16.7086 5.08076 16.6317 5.08076H7.36829C7.29135 5.08076 7.22083 5.11281 7.15671 5.17691C7.09261 5.24103 7.06056 5.31155 7.06056 5.38846V17.398C7.06056 17.507 7.10704 17.5936 7.19999 17.6577C7.29295 17.7218 7.39072 17.7314 7.49329 17.6865L12 15.7378ZM12 5.08076H7.06056H16.9394H12Z" fill="black"/>
</svg>
