<svg width="24" height="24" viewBox="0 0 24 24" fill="none" xmlns="http://www.w3.org/2000/svg">
  <path d="M12.0013 20.6393C11.6126 20.6393 11.2687 20.5369 10.9697 20.3321C10.6707 20.1273 10.4638 19.8531 10.349 19.5095H10.0202C9.64239 19.5095 9.31477 19.3708 9.03733 19.0934C8.7599 18.8159 8.62119 18.4884 8.62119 18.1108V14.9105C7.6122 14.3073 6.82502 13.5055 6.25964 12.5049C5.69425 11.5043 5.41156 10.4285 5.41156 9.27746C5.41156 7.43095 6.04884 5.87003 7.32339 4.59471C8.59794 3.31941 10.1564 2.68176 11.9988 2.68176C13.8413 2.68176 15.4001 3.31941 16.6754 4.59471C17.9508 5.87003 18.5884 7.4291 18.5884 9.27191C18.5884 10.4307 18.3057 11.5093 17.7403 12.5079C17.175 13.5065 16.3878 14.3073 15.3788 14.9105V18.1108C15.3788 18.4884 15.2401 18.8159 14.9626 19.0934C14.6852 19.3708 14.3576 19.5095 13.9798 19.5095H13.6509C13.5362 19.8531 13.3297 20.1273 13.0316 20.3321C12.7334 20.5369 12.39 20.6393 12.0013 20.6393ZM10.0202 18.1105H13.9798V17.1721H10.0202V18.1105ZM10.0202 16.3076H13.9798V15.3586H10.0202V16.3076ZM12.5557 13.9596V11.0682L14.2788 9.34516C14.3884 9.23266 14.4448 9.10088 14.4481 8.94981C14.4513 8.79873 14.3943 8.66449 14.277 8.54709C14.1585 8.43107 14.0254 8.37306 13.878 8.37306C13.7306 8.37306 13.5982 8.43107 13.4808 8.54709L12 10.0279L10.5192 8.54709C10.4067 8.43749 10.2749 8.38108 10.1239 8.37786C9.97278 8.37466 9.83854 8.43167 9.72114 8.54889C9.60512 8.66747 9.54711 8.80048 9.54711 8.94791C9.54711 9.09535 9.60512 9.22776 9.72114 9.34516L11.4442 11.0701V13.9596H12.5557Z" fill="#f9d100"/>
</svg>
