<svg width="24" height="24" viewBox="0 0 24 24" fill="none" xmlns="http://www.w3.org/2000/svg">
<path d="M12 17.0144C13.1256 17.0144 14.0782 16.6255 14.8577 15.8478C15.6372 15.07 16.0269 14.1166 16.0269 12.9875C16.0269 11.8651 15.6372 10.9141 14.8577 10.1346C14.0782 9.35516 13.1256 8.96542 12 8.96542C10.8744 8.96542 9.92262 9.35516 9.14474 10.1346C8.36686 10.9141 7.97792 11.8651 7.97792 12.9875C7.97792 14.1166 8.36686 15.07 9.14474 15.8478C9.92262 16.6255 10.8744 17.0144 12 17.0144ZM11.9963 15.6154C11.2539 15.6154 10.6317 15.3633 10.1298 14.8592C9.62789 14.355 9.37694 13.7328 9.37694 12.9926C9.37694 12.2524 9.62799 11.6294 10.1301 11.1234C10.6322 10.6174 11.2546 10.3644 11.9973 10.3644C12.74 10.3644 13.3641 10.6174 13.8696 11.1234C14.3752 11.6294 14.6279 12.2524 14.6279 12.9926C14.6279 13.7328 14.3749 14.355 13.869 14.8592C13.363 15.3633 12.7388 15.6154 11.9963 15.6154ZM4.40659 20.2981C3.93404 20.2981 3.5318 20.1321 3.19987 19.8002C2.86793 19.4682 2.70197 19.0657 2.70197 18.5927V7.39487C2.70197 6.9218 2.86793 6.5193 3.19987 6.18737C3.5318 5.85543 3.93474 5.68947 4.40869 5.68947H7.46254L8.76254 4.26447C8.91731 4.08818 9.10527 3.95036 9.32644 3.85101C9.54759 3.75165 9.78302 3.70197 10.0327 3.70197H13.9721C14.2177 3.70197 14.4513 3.75165 14.6729 3.85101C14.8945 3.95036 15.0843 4.08818 15.2423 4.26447L16.5375 5.68947H19.5913C20.0653 5.68947 20.4682 5.85543 20.8002 6.18737C21.1321 6.5193 21.2981 6.9218 21.2981 7.39487V18.5927C21.2981 19.0657 21.1321 19.4682 20.8002 19.8002C20.4682 20.1321 20.066 20.2981 19.5934 20.2981H4.40659Z" fill="black"/>
</svg>
