<svg width="139" height="139" viewBox="0 0 139 139" fill="none" xmlns="http://www.w3.org/2000/svg">
<path d="M59.154 85.6127L41.9969 68.4197C40.9764 67.4231 39.7574 66.9128 38.3399 66.889C36.9223 66.8652 35.6879 67.379 34.6366 68.4303C33.5616 69.5053 33.0241 70.7397 33.0241 72.1335C33.0241 73.5273 33.5507 74.7389 34.604 75.7685L54.7017 95.866C55.9588 97.1694 57.4384 97.8212 59.1405 97.8212C60.8426 97.8212 62.3432 97.1694 63.6424 95.866L104.329 55.1795C105.333 54.1758 105.846 52.9652 105.87 51.5475C105.894 50.13 105.38 48.8837 104.329 47.8087C103.254 46.7574 102.019 46.2318 100.626 46.2318C99.2318 46.2318 98.0175 46.7492 96.9825 47.7842L59.154 85.6127ZM69.5533 138.536C60.011 138.536 51.04 136.723 42.6403 133.096C34.2405 129.469 26.9339 124.547 20.7204 118.329C14.5069 112.112 9.58946 104.811 5.96817 96.4272C2.34689 88.0434 0.536255 79.0854 0.536255 69.5533C0.536255 60.011 2.34974 51.0399 5.97671 42.6402C9.60356 34.2405 14.5258 26.9339 20.7434 20.7203C26.9609 14.5068 34.2615 9.58939 42.6453 5.96811C51.0291 2.34683 59.987 0.536194 69.5192 0.536194C79.0615 0.536194 88.0325 2.34968 96.4322 5.97665C104.832 9.6035 112.139 14.5257 118.352 20.7433C124.566 26.9608 129.483 34.2614 133.104 42.6452C136.726 51.029 138.536 59.987 138.536 69.5191C138.536 79.0614 136.723 88.0324 133.096 96.4322C129.469 104.832 124.547 112.139 118.329 118.352C112.112 124.566 104.811 129.483 96.4272 133.104C88.0434 136.726 79.0855 138.536 69.5533 138.536Z" fill="#89C636"/>
</svg>
