<svg width="139" height="139" viewBox="0 0 139 139" fill="none" xmlns="http://www.w3.org/2000/svg">
<path d="M59.3197 85.7784L42.1626 68.5854C41.1421 67.5888 39.9231 67.0786 38.5056 67.0547C37.0881 67.0309 35.8536 67.5447 34.8024 68.596C33.7273 69.671 33.1898 70.9055 33.1898 72.2992C33.1898 73.693 33.7164 74.9046 34.7697 75.9342L54.8674 96.0317C56.1245 97.3351 57.6041 97.9869 59.3062 97.9869C61.0083 97.9869 62.5089 97.3351 63.8081 96.0317L104.495 55.3452C105.498 54.3415 106.012 53.1309 106.036 51.7132C106.06 50.2957 105.546 49.0495 104.495 47.9744C103.419 46.9231 102.185 46.3975 100.791 46.3975C99.3975 46.3975 98.1832 46.9149 97.1482 47.9499L59.3197 85.7784ZM69.719 138.702C60.1767 138.702 51.2057 136.888 42.806 133.261C34.4063 129.635 27.0996 124.712 20.8861 118.495C14.6726 112.277 9.75517 104.977 6.13388 96.5929C2.5126 88.2091 0.701965 79.2511 0.701965 69.719C0.701965 60.1767 2.51545 51.2057 6.14242 42.8059C9.76927 34.4062 14.6915 27.0996 20.9091 20.886C27.1266 14.6725 34.4272 9.7551 42.811 6.13382C51.1948 2.51254 60.1527 0.701904 69.6849 0.701904C79.2272 0.701904 88.1982 2.51539 96.5979 6.14236C104.998 9.76921 112.304 14.6914 118.518 20.909C124.731 27.1265 129.649 34.4272 133.27 42.8109C136.891 51.1947 138.702 60.1527 138.702 69.6848C138.702 79.2271 136.888 88.1982 133.262 96.5979C129.635 104.998 124.712 112.304 118.495 118.518C112.277 124.731 104.977 129.649 96.5929 133.27C88.2092 136.891 79.2512 138.702 69.719 138.702Z" fill="#117146"/>
</svg>
