<svg width="24" height="24" viewBox="0 0 24 24" fill="none" xmlns="http://www.w3.org/2000/svg">
<path d="M12 12.9933L6.95959 18.0337C6.82114 18.1721 6.6564 18.2409 6.46537 18.2399C6.27435 18.2389 6.10801 18.1676 5.96634 18.026C5.82981 17.8843 5.76282 17.7208 5.76539 17.5356C5.76796 17.3503 5.83751 17.1894 5.97404 17.0529L11.0067 12L5.97404 6.94711C5.84391 6.81699 5.77724 6.6577 5.77404 6.46923C5.77084 6.28078 5.83751 6.11572 5.97404 5.97406C6.11057 5.83239 6.27275 5.75947 6.46057 5.75531C6.64838 5.75114 6.81472 5.81989 6.95959 5.96156L12 11.0068L17.0452 5.96156C17.1804 5.82631 17.3436 5.75916 17.5346 5.76011C17.7256 5.76107 17.8936 5.83239 18.0384 5.97406C18.1718 6.11572 18.2372 6.27918 18.2346 6.46443C18.232 6.64968 18.1625 6.81057 18.0259 6.94711L12.9932 12L18.0259 17.0529C18.1561 17.183 18.2227 17.3423 18.2259 17.5308C18.2291 17.7192 18.1625 17.8843 18.0259 18.026C17.8894 18.1676 17.7272 18.2405 17.5394 18.2447C17.3516 18.2489 17.1869 18.1785 17.0452 18.0337L12 12.9933Z" fill="black"/>
</svg>
