<svg width="24" height="24" viewBox="0 0 24 24" fill="none" xmlns="http://www.w3.org/2000/svg">
<path d="M5.38619 20.3182C4.91375 20.3182 4.51157 20.1523 4.17964 19.8204C3.84772 19.4884 3.68176 19.0862 3.68176 18.6138V5.3862C3.68176 4.91377 3.84772 4.51159 4.17964 4.17965C4.51157 3.84774 4.91451 3.68178 5.38846 3.68178H12.301C12.535 3.68178 12.7104 3.75357 12.8274 3.89715C12.9444 4.04074 13.0029 4.19922 13.0029 4.3726C13.0029 4.55242 12.943 4.7154 12.8232 4.86155C12.7035 5.0077 12.5284 5.08078 12.2981 5.08078H5.38846C5.31155 5.08078 5.24103 5.11283 5.17691 5.17693C5.11281 5.24105 5.08076 5.31156 5.08076 5.38848V18.6115C5.08076 18.6884 5.11281 18.759 5.17691 18.8231C5.24103 18.8872 5.31155 18.9192 5.38846 18.9192H18.6115C18.6884 18.9192 18.7589 18.8872 18.8231 18.8231C18.8872 18.759 18.9192 18.6884 18.9192 18.6115V11.6307C18.9192 11.3968 18.992 11.2213 19.1377 11.1043C19.2833 10.9873 19.4445 10.9288 19.6211 10.9288C19.7987 10.9288 19.9593 10.9873 20.1028 11.1043C20.2464 11.2213 20.3182 11.3968 20.3182 11.6307V18.6115C20.3182 19.0855 20.1523 19.4884 19.8203 19.8204C19.4884 20.1523 19.0862 20.3182 18.6138 20.3182H5.38619ZM9.55291 13.5961V11.7952C9.55291 11.5662 9.59753 11.3459 9.68676 11.1344C9.77601 10.9228 9.9003 10.7383 10.0596 10.5808L18.6404 1.99523C18.7872 1.85165 18.9442 1.74812 19.1115 1.68465C19.2788 1.6212 19.4534 1.58948 19.6351 1.58948C19.82 1.58948 19.9961 1.6204 20.1634 1.68225C20.3307 1.7441 20.4862 1.84522 20.6298 1.9856L21.9538 3.3106C22.0935 3.45739 22.1988 3.61844 22.2697 3.79375C22.3405 3.96907 22.3759 4.14871 22.3759 4.33268C22.3759 4.51666 22.3455 4.69182 22.2846 4.85815C22.2237 5.0245 22.1198 5.17947 21.973 5.32305L13.3711 13.9375C13.2136 14.0933 13.0291 14.2172 12.8176 14.3092C12.606 14.4011 12.3857 14.4471 12.1567 14.4471H10.4039C10.1648 14.4471 9.96316 14.365 9.79906 14.2009C9.63496 14.0368 9.55291 13.8352 9.55291 13.5961ZM10.9519 13.0481H12.2788L18.5596 6.75478L17.896 6.09133L17.201 5.42113L10.9519 11.6577V13.0481Z" fill="black"/>
</svg>
