<svg width="150" height="150" viewBox="0 0 150 150" fill="none" xmlns="http://www.w3.org/2000/svg">
<circle cx="75" cy="75" r="75" fill="#117146"/>
<path d="M41.1504 97.4354L41.1504 97.4353C41.0088 97.2938 40.929 97.1124 40.929 96.849V79.04V78.517V55.1342L71.8471 73.8613C72.5071 74.2853 73.2282 74.5011 74.0006 74.5011C74.7752 74.5011 75.5031 74.2842 76.1752 73.86L107.071 54.4485V75.5543C107.071 76.5128 107.416 77.3417 108.097 78.0112L108.448 77.6547L108.097 78.0113C108.774 78.6771 109.599 79.017 110.544 79.017C111.489 79.017 112.313 78.6771 112.99 78.0113C113.671 77.3417 114.017 76.5128 114.017 75.5543V49.1511C114.017 47.0056 113.26 45.1655 111.754 43.66C110.249 42.1549 108.412 41.3976 106.272 41.3976H41.7279C39.588 41.3976 37.751 42.1549 36.2458 43.66L36.2458 43.66C34.7406 45.1652 33.9833 47.0025 33.9833 49.143V96.8571C33.9833 98.9976 34.7406 100.835 36.2458 102.34L36.5994 101.987L36.2458 102.34C37.7513 103.846 39.5914 104.602 41.7369 104.602H76.5542C77.5117 104.602 78.3426 104.259 79.0184 103.584L79.0185 103.584C79.6942 102.908 80.0373 102.077 80.0373 101.119C80.0373 100.175 79.6922 99.3522 79.0188 98.6775L79.0188 98.6775C78.343 98.0006 77.512 97.6567 76.5542 97.6567H41.7369C41.4735 97.6567 41.2921 97.577 41.1504 97.4354ZM42.1717 48.3433H105.828L74 68.2462L42.1717 48.3433ZM105.13 97.6567H89.7536C88.795 97.6567 87.9661 98.0022 87.2966 98.6832C86.6307 99.3604 86.2909 100.185 86.2909 101.13C86.2909 102.075 86.6307 102.899 87.2966 103.576C87.9661 104.257 88.7951 104.602 89.7536 104.602H105.11L100.045 109.793L100.043 109.796C99.3912 110.473 99.0531 111.28 99.0531 112.196C99.0531 113.112 99.392 113.906 100.052 114.552C100.733 115.247 101.556 115.613 102.498 115.616C103.428 115.619 104.234 115.294 104.884 114.644L115.484 104.043C115.887 103.64 116.201 103.19 116.42 102.692L116.42 102.692C116.639 102.194 116.751 101.675 116.751 101.14C116.751 100.581 116.641 100.053 116.418 99.5618L116.418 99.5618C116.199 99.0813 115.888 98.635 115.491 98.222L115.492 98.222L115.485 98.2151L104.978 87.6893L104.974 87.6851C104.277 87.0037 103.448 86.6468 102.505 86.6435C101.573 86.6404 100.751 86.9654 100.063 87.605L100.058 87.6095C99.3419 88.2926 98.9682 89.124 98.9714 90.0813C98.9746 91.0297 99.3311 91.8581 100.017 92.5438L105.13 97.6567Z" fill="white" stroke="white"/>
</svg>
