<svg width="24" height="24" viewBox="0 0 24 24" fill="none" xmlns="http://www.w3.org/2000/svg">
<path d="M11.9974 16.6298C12.2177 16.6298 12.4011 16.5575 12.5476 16.4127C12.6941 16.268 12.7673 16.0855 12.7673 15.8651C12.7673 15.6448 12.695 15.4614 12.5502 15.3149C12.4055 15.1684 12.223 15.0952 12.0026 15.0952C11.7823 15.0952 11.5989 15.1676 11.4524 15.3123C11.306 15.457 11.2327 15.6395 11.2327 15.8599C11.2327 16.0802 11.3051 16.2636 11.4498 16.4101C11.5945 16.5566 11.777 16.6298 11.9974 16.6298ZM12.0104 13.0769C12.2028 13.0769 12.3675 13.0084 12.5043 12.8714C12.6412 12.7344 12.7096 12.5689 12.7096 12.375V7.85482C12.7096 7.6646 12.641 7.50086 12.5036 7.36359C12.3663 7.22634 12.2025 7.15771 12.0122 7.15771C11.8182 7.15771 11.6527 7.22634 11.5159 7.36359C11.379 7.50086 11.3106 7.6646 11.3106 7.85482V12.375C11.3106 12.5689 11.3792 12.7344 11.5162 12.8714C11.6533 13.0084 11.818 13.0769 12.0104 13.0769ZM12.0023 21.2981C10.7164 21.2981 9.50757 21.0537 8.37567 20.5649C7.24377 20.0762 6.25917 19.4129 5.42187 18.5751C4.58457 17.7372 3.92192 16.7534 3.43394 15.6237C2.94596 14.4939 2.70197 13.2868 2.70197 12.0023C2.70197 10.7164 2.94634 9.50757 3.43509 8.37567C3.92382 7.24377 4.58712 6.25917 5.42497 5.42187C6.2628 4.58457 7.24659 3.92192 8.37634 3.43394C9.50609 2.94596 10.7132 2.70197 11.9977 2.70197C13.2836 2.70197 14.4925 2.94634 15.6244 3.43509C16.7563 3.92382 17.7409 4.58711 18.5782 5.42496C19.4155 6.2628 20.0781 7.24659 20.5661 8.37634C21.0541 9.50609 21.2981 10.7132 21.2981 11.9977C21.2981 13.2836 21.0537 14.4925 20.5649 15.6244C20.0762 16.7563 19.4129 17.7409 18.5751 18.5782C17.7372 19.4155 16.7534 20.0781 15.6237 20.5661C14.4939 21.0541 13.2868 21.2981 12.0023 21.2981Z" fill="black"/>
</svg>
