<svg width="48" height="48" viewBox="0 0 48 48" fill="none" xmlns="http://www.w3.org/2000/svg">
<g id="web_neutral_rd_na">
<g clip-path="url(#clip0_2245_2154)">
<path id="Vector" d="M48 24C48 10.7452 37.2548 0 24 0C10.7452 0 0 10.7452 0 24C0 37.2548 10.7452 48 24 48C37.2548 48 48 37.2548 48 24Z" fill="#F2F2F2"/>
<g id="Clip path group">
<mask id="mask0_2245_2154" style="mask-type:luminance" maskUnits="userSpaceOnUse" x="12" y="12" width="24" height="24">
<g id="clip0_710_6221">
<path id="Vector_2" d="M36 12H12V36H36V12Z" fill="white"/>
</g>
</mask>
<g mask="url(#mask0_2245_2154)">
<g id="Group">
<path id="Vector_3" d="M35.52 24.2728C35.52 23.4219 35.4437 22.6037 35.3018 21.8182H24V26.46H30.4582C30.18 27.96 29.3346 29.2309 28.0637 30.0819V33.0928H31.9418C34.2109 31.0037 35.52 27.9273 35.52 24.2728Z" fill="#4285F4"/>
<path id="Vector_4" d="M24 36C27.24 36 29.9564 34.9254 31.9418 33.0928L28.0636 30.0818C26.9891 30.8018 25.6145 31.2272 24 31.2272C20.8745 31.2272 18.2291 29.1163 17.2854 26.28H13.2764V29.3891C15.251 33.3109 19.3091 36 24 36Z" fill="#34A853"/>
<path id="Vector_5" d="M17.2854 26.28C17.0454 25.56 16.9091 24.7909 16.9091 24C16.9091 23.2091 17.0454 22.44 17.2854 21.72V18.6109H13.2763C12.4637 20.2309 12 22.0637 12 24C12 25.9363 12.4637 27.7691 13.2763 29.3891L17.2854 26.28Z" fill="#FBBC04"/>
<path id="Vector_6" d="M24 16.7728C25.7618 16.7728 27.3436 17.3782 28.5873 18.5672L32.0291 15.1254C29.951 13.1891 27.2345 12 24 12C19.3091 12 15.251 14.6891 13.2764 18.6109L17.2854 21.72C18.2291 18.8837 20.8745 16.7728 24 16.7728Z" fill="#E94235"/>
</g>
</g>
</g>
</g>
<rect x="0.5" y="0.5" width="47" height="47" rx="23.5" stroke="#F0F0F1"/>
</g>
<defs>
<clipPath id="clip0_2245_2154">
<rect width="48" height="48" rx="24" fill="white"/>
</clipPath>
</defs>
</svg>
