<svg width="24" height="24" viewBox="0 0 24 24" fill="none" xmlns="http://www.w3.org/2000/svg">
<path d="M6.08076 18.9192H9.34616V13.8606C9.34616 13.6231 9.42941 13.4211 9.59591 13.2546C9.76243 13.0881 9.96444 13.0048 10.2019 13.0048H13.8029C14.0367 13.0048 14.2369 13.0881 14.4037 13.2546C14.5704 13.4211 14.6538 13.6231 14.6538 13.8606V18.9192H17.9192V10.1724C17.9192 10.1212 17.908 10.0747 17.8856 10.033C17.8631 9.99133 17.8327 9.95447 17.7942 9.92242L12.1827 5.70577C12.1314 5.6609 12.0705 5.63847 12 5.63847C11.9295 5.63847 11.8686 5.6609 11.8173 5.70577L6.20576 9.92242C6.1673 9.95447 6.13685 9.99133 6.11441 10.033C6.09198 10.0747 6.08076 10.1212 6.08076 10.1724V18.9192ZM4.68176 18.9192V10.174C4.68176 9.90069 4.74038 9.64468 4.85761 9.40602C4.97486 9.16735 5.1438 8.96823 5.36444 8.80867L10.976 4.58079C11.2797 4.35322 11.6208 4.23944 11.9994 4.23944C12.378 4.23944 12.7195 4.35322 13.024 4.58079L18.6355 8.80867C18.8562 8.96823 19.0251 9.16735 19.1424 9.40602C19.2596 9.64468 19.3182 9.90069 19.3182 10.174V18.9192C19.3182 19.3004 19.1803 19.6289 18.9046 19.9046C18.6289 20.1803 18.3004 20.3182 17.9192 20.3182H14.1106C13.8731 20.3182 13.6711 20.235 13.5046 20.0685C13.3381 19.902 13.2548 19.7 13.2548 19.4625V14.4038H10.7452V19.4625C10.7452 19.7 10.6618 19.902 10.4952 20.0685C10.3286 20.235 10.1284 20.3182 9.89476 20.3182H6.07864C5.69905 20.3182 5.37135 20.1803 5.09551 19.9046C4.81968 19.6289 4.68176 19.3004 4.68176 18.9192Z" fill="black"/>
</svg>
