<svg width="24" height="24" viewBox="0 0 24 24" fill="none" xmlns="http://www.w3.org/2000/svg">
<path d="M4.68176 18.9192V10.174C4.68176 9.90129 4.74033 9.64568 4.85746 9.40722C4.97461 9.16877 5.1436 8.96925 5.36444 8.80867L10.976 4.58079C11.2784 4.35322 11.6192 4.23944 11.9984 4.23944C12.3777 4.23944 12.7195 4.35322 13.024 4.58079L18.6355 8.80867C18.8564 8.96925 19.0254 9.16877 19.1425 9.40722C19.2596 9.64568 19.3182 9.90129 19.3182 10.174V18.9192C19.3182 19.3013 19.1806 19.6299 18.9053 19.9053C18.6299 20.1806 18.3013 20.3182 17.9192 20.3182H14.8077C14.5702 20.3182 14.369 20.235 14.2041 20.0685C14.0392 19.902 13.9567 19.7 13.9567 19.4625V14.5577C13.9567 14.3234 13.8735 14.123 13.707 13.9565C13.5404 13.79 13.3384 13.7067 13.1009 13.7067H10.899C10.6615 13.7067 10.4603 13.79 10.2954 13.9565C10.1305 14.123 10.0481 14.3234 10.0481 14.5577V19.4625C10.0481 19.7 9.96481 19.902 9.79831 20.0685C9.63181 20.235 9.42981 20.3182 9.19231 20.3182H6.08076C5.69871 20.3182 5.37003 20.1806 5.09471 19.9053C4.81941 19.6299 4.68176 19.3013 4.68176 18.9192Z" fill="black"/>
</svg>
