<svg width="153" height="150" viewBox="0 0 153 150" fill="none" xmlns="http://www.w3.org/2000/svg">
<path d="M77 150C35.5796 150 2 116.42 2 75C2 33.5797 35.5796 0 77 0C118.42 0 152 33.5797 152 75C152 116.42 118.42 150 77 150Z" fill="#117146"/>
<path d="M5.82812 132.805H147.823" stroke="white" stroke-width="10" stroke-miterlimit="10" stroke-linecap="round" stroke-linejoin="round"/>
<path fill-rule="evenodd" clip-rule="evenodd" d="M5.8464 128.114C8.49968 106.21 27.1855 89.2361 49.8536 89.2361C72.5218 89.2361 91.2076 106.21 93.8609 128.114C94.0263 129.479 93.0512 130.719 91.6831 130.885C90.315 131.05 89.0719 130.077 88.9065 128.711C86.5524 109.277 69.9661 94.2158 49.8536 94.2158C29.7412 94.2158 13.1548 109.277 10.8007 128.711C10.6354 130.077 9.39226 131.05 8.02416 130.885C6.65605 130.719 5.68104 129.479 5.8464 128.114Z" fill="white" stroke="white" stroke-width="4" stroke-miterlimit="10" stroke-linecap="round" stroke-linejoin="round"/>
<path fill-rule="evenodd" clip-rule="evenodd" d="M66.123 61.7342C59.2588 68.3121 55.2765 79.7156 56.6387 91.2713C56.8425 93.0002 55.6031 94.5666 53.8704 94.7699C52.1377 94.9733 50.5679 93.7366 50.364 92.0077C48.7914 78.6666 52.7911 65.447 61.205 57.3841C69.68 49.2626 82.7163 47.0127 96.1359 50.633L96.517 50.773C97.6958 51.2943 98.681 52.1401 99.2623 53.3349C99.812 54.465 99.8456 55.5917 99.7604 56.4364C99.6759 57.2751 99.4509 58.0521 99.2678 58.6216C99.142 59.0132 99.0633 59.237 98.9981 59.4229C98.9317 59.6118 98.8791 59.7615 98.8047 60.0084L98.7726 60.1087C96.2223 67.6434 91.2468 72.7687 84.9475 75.1414C78.7094 77.491 71.5179 77.0163 64.6407 74.0753C63.0371 73.3896 62.2943 71.5366 62.9815 69.9365C63.6687 68.3364 65.5258 67.5952 67.1294 68.281C72.8008 70.7062 78.2817 70.9138 82.7163 69.2435C87.0787 67.6004 90.7685 64.0176 92.7716 58.1364C92.8529 57.8712 92.9195 57.6768 93.0197 57.3841C93.1198 57.0913 93.0506 57.2942 93.0506 57.2942L93.2518 56.6964C93.2518 56.6964 93.3077 56.5137 93.3435 56.3967C82.1866 53.4231 72.7305 55.4023 66.123 61.7342Z" fill="white"/>
<path d="M43.8172 53.019L44.3871 53.3068L51.5598 57.0566L51.7013 57.1261C51.7583 57.1549 51.8319 57.2112 51.929 57.2982C52.0164 57.3606 52.0938 57.4553 52.1849 57.556C52.2603 57.6459 52.313 57.7503 52.3321 57.8851C52.371 58.0121 52.3457 58.1643 52.2947 58.3381C52.2135 58.6375 52.0598 58.8687 51.8523 59.0358C51.7239 59.1148 51.5986 59.1584 51.442 59.1518C51.4026 59.1673 51.3622 59.1661 51.3287 59.1679C51.3012 59.156 51.2657 59.1529 51.2323 59.1547C51.1161 59.1492 51.0099 59.1113 50.8919 59.0724C50.8073 59.0317 50.7011 58.9938 50.5969 58.9609C50.5004 58.9476 50.4297 58.9129 50.3452 58.8722C50.3051 58.814 50.2343 58.7792 50.1498 58.7385L49.0572 58.167L47.3082 57.2619L46.9137 58.0376L45.445 60.9549L48.715 62.6498L48.8516 62.7212C48.9086 62.75 48.9822 62.8064 49.0793 62.8934C49.1667 62.9557 49.244 63.0505 49.3352 63.1512C49.4106 63.241 49.4633 63.3455 49.4824 63.4802C49.5212 63.6072 49.4959 63.7595 49.4449 63.9332C49.3638 64.2326 49.2101 64.4639 49.0026 64.631C48.8742 64.71 48.7549 64.7398 48.5864 64.7607C48.5529 64.7625 48.5174 64.7593 48.4899 64.7474L48.3825 64.7498C48.2663 64.7443 48.1601 64.7065 48.0421 64.6676C47.9576 64.6269 47.8455 64.6027 47.7412 64.5698C47.6507 64.5428 47.58 64.508 47.5044 64.4467L47.2971 64.3405L46.2045 63.769L44.1745 62.7014C43.5949 62.3889 42.9591 62.0644 42.2889 61.7249C41.6128 61.3992 41.1629 61.1552 40.5371 60.7982L40.4801 60.7695C40.3063 60.6615 40.0989 60.5553 39.9133 60.4462C39.7394 60.3382 39.5795 60.2077 39.4514 60.0134C39.3436 59.8851 39.295 59.7335 39.2653 59.5574C39.269 59.3795 39.3063 59.1998 39.3868 59.0429C39.4613 58.8997 39.5327 58.792 39.6041 58.6842C39.6864 58.5607 39.7901 58.4914 39.94 58.4381C40.0318 58.3963 40.1314 58.3741 40.2416 58.3934C40.3735 58.4097 40.4886 58.427 40.6037 58.4728C40.7374 58.5226 40.8445 58.5772 40.9585 58.6347L41.5284 58.9226L43.807 60.1143C43.8874 59.9574 43.9848 59.7711 44.1072 59.4896C44.611 58.5002 45.1363 57.5364 45.6808 56.4627L45.6868 56.449C44.8663 56.0321 44.1363 55.6422 43.314 55.1919C43.1342 55.0977 42.9328 54.9777 42.7472 54.8687C42.5733 54.7607 42.4134 54.6302 42.2852 54.4359C42.1666 54.3233 42.1289 54.156 42.1051 53.9661C42.1029 53.802 42.1402 53.6222 42.2206 53.4654C42.2952 53.3222 42.3725 53.2007 42.4379 53.1066C42.5093 52.9989 42.6349 52.8982 42.7739 52.8606C42.8717 52.805 42.9653 52.7966 43.0755 52.8158C43.2054 52.8273 43.3116 52.8651 43.4485 52.8796C43.5941 52.9019 43.7081 52.9595 43.8172 53.019Z" fill="white"/>
<path d="M48.2683 48.2823L50.0363 49.9266L50.4821 49.4625C51.0691 48.8225 51.4879 48.3815 52.0764 47.7893L52.1329 47.7317C52.3102 47.5464 52.4876 47.3824 52.6559 47.2047C52.8461 47.0267 53.0598 46.8961 53.2592 46.7746C53.4369 46.6748 53.6083 46.6356 53.7735 46.6354C53.9529 46.6477 54.1028 46.7157 54.2129 46.8209C54.2919 46.8914 54.3942 46.9879 54.4514 47.0802C54.5175 47.1647 54.5542 47.2837 54.5341 47.4388C54.5487 47.5368 54.5015 47.6508 54.4374 47.7639C54.3811 47.8642 54.3042 47.9913 54.2053 48.1188C54.1284 48.2459 54.0425 48.3593 53.9294 48.4744L53.4065 49.0228L51.3678 51.1865L53.5773 53.2353L55.8078 50.9414L56.3307 50.393C56.4437 50.2779 56.5503 50.1591 56.6506 50.0795C56.7857 49.9854 56.8976 49.8867 57.0057 49.8157C57.1267 49.7521 57.2543 49.7135 57.3548 49.6981C57.5122 49.6892 57.6258 49.7025 57.7409 49.7636C57.8198 49.8127 57.9207 49.8828 58.0011 49.9797C58.1241 50.0923 58.1956 50.2182 58.2196 50.3941C58.2344 50.5562 58.2145 50.7327 58.1159 50.903C58.0316 51.1284 57.8983 51.3344 57.7068 51.5288C57.5515 51.7138 57.3742 51.8992 57.2188 52.0842L57.1546 52.1545C56.5881 52.7678 55.9933 53.3991 55.3573 54.0412C54.7701 54.6385 54.7136 54.696 54.2459 55.1818C54.1034 55.3528 53.935 55.4877 53.7339 55.54C53.6115 55.5772 53.476 55.5857 53.3262 55.539C53.2823 55.5397 53.2332 55.5204 53.2254 55.5117C53.1906 55.5047 53.1467 55.5054 53.1118 55.4984C53.011 55.4497 52.9101 55.4009 52.8298 55.3255C52.7509 55.2764 52.6578 55.2149 52.5698 55.1522L52.3885 54.9852C52.3315 54.9357 52.2731 54.8599 52.2162 54.8105L51.3277 54.0028L49.71 52.4908L48.1948 51.118C47.647 50.6234 47.2843 50.2679 46.7934 49.8013L46.7364 49.7519C46.5861 49.5982 46.4539 49.4506 46.3024 49.3133C46.1521 49.1596 46.0494 48.9775 45.9815 48.781C45.9228 48.6196 45.886 48.4578 45.9408 48.2883C45.9826 48.1114 46.0518 47.9756 46.1802 47.8351C46.2367 47.7775 46.2714 47.7417 46.3229 47.7069L46.31 47.6996C46.8418 47.1435 46.8765 47.1077 47.4712 46.4549C48.0454 45.8289 48.5554 45.2946 49.1349 44.71L49.1786 44.6665C49.356 44.5026 49.5333 44.3172 49.7107 44.1532C49.879 43.9756 50.0874 43.8464 50.3012 43.7372C50.4569 43.6378 50.636 43.5858 50.8063 43.5843C50.9767 43.6042 51.1137 43.665 51.2238 43.7702C51.3171 43.853 51.4051 43.9372 51.4545 44.0207C51.5349 44.1176 51.5573 44.2242 51.5592 44.379C51.5389 44.47 51.5174 44.5773 51.4625 44.704C51.3984 44.8171 51.3073 44.9318 51.2303 45.0376C51.1393 45.1737 51.0404 45.2798 50.9324 45.3935L50.4314 45.9202L48.2231 48.2566L48.2683 48.2823Z" fill="white"/>
<path d="M68.0216 44.3977C68.0831 44.5068 68.1064 44.615 68.0892 44.7489C68.0749 44.8614 68.0267 45.0095 67.9266 45.1318C67.7563 45.3994 67.5364 45.5672 67.239 45.6751C67.1073 45.7113 66.9457 45.7245 66.7788 45.6909C66.734 45.6801 66.6959 45.6792 66.6667 45.6615C66.644 45.6535 66.5921 45.6278 66.5546 45.6321C66.4198 45.5947 66.3095 45.5334 66.2057 45.482C66.1174 45.4234 66.0292 45.3649 65.9188 45.3036C65.8377 45.2601 65.756 45.2114 65.7059 45.1538C65.6403 45.1033 65.5669 45.0325 65.5114 44.9755L64.8392 44.4717C63.5281 45.1709 62.1931 45.8992 60.8694 46.584L60.9373 47.4103C60.9469 47.4937 60.9785 47.5798 60.9881 47.6632C60.9977 47.7465 61.0073 47.8299 61.0014 47.9203C60.9943 48.0478 61.0009 48.1527 60.9861 48.2599C60.9874 48.3654 60.9851 48.4871 60.9404 48.6189C60.922 48.6474 60.9125 48.7065 60.9089 48.7228C60.9077 48.7599 60.8887 48.7832 60.872 48.8273C60.8083 48.9824 60.7082 49.1047 60.6099 49.1952C60.3596 49.3822 60.0926 49.4709 59.7713 49.4654C59.6097 49.4787 59.4582 49.4379 59.3551 49.3917C59.2293 49.3375 59.1493 49.2569 59.0878 49.1478C59.0198 49.0288 58.9804 48.9225 58.9344 48.8063C58.9021 48.715 58.8788 48.6068 58.8692 48.5234C58.8525 48.4251 58.8543 48.3932 58.8471 48.3782L57.975 39.8519L57.9396 39.592C57.9247 39.4617 57.9335 39.3498 57.9114 39.2045C57.8964 39.0743 57.8826 38.9544 57.8932 38.8107C57.8884 38.674 57.9265 38.5324 57.9508 38.4134C57.9806 38.2939 58.0341 38.1927 58.0949 38.1066C58.3171 37.8647 58.7063 37.6565 59.0324 37.6086C59.1403 37.6015 59.2607 37.6088 59.3746 37.6539C59.4939 37.6983 59.6197 37.7525 59.7527 37.8217C59.8857 37.891 59.9811 37.9645 60.0831 38.0479C60.1923 38.1462 60.2961 38.1977 60.4034 38.2804L60.6134 38.4517L64.0508 41.1147L67.4882 43.7778C67.4954 43.7928 67.5246 43.8105 67.5974 43.8761C67.663 43.9267 67.7483 44.0067 67.8056 44.0793C67.8837 44.1918 67.9529 44.2736 68.0216 44.3977ZM62.5362 42.5974C62.003 42.215 61.4262 41.7848 60.8119 41.3589C60.6509 41.2348 60.4624 41.1086 60.3008 40.9793C60.3337 41.1708 60.3487 41.3961 60.3661 41.5947C60.4017 42.3297 60.4612 43.0356 60.5027 43.6802L60.5759 44.4109L63.1321 43.0518L62.5362 42.5974Z" fill="white"/>
<path d="M76.7799 41.455C76.8154 41.608 76.7713 41.7787 76.7052 41.9181C76.6289 42.0789 76.5195 42.1875 76.3565 42.2867C76.1357 42.419 75.9142 42.5194 75.6755 42.5726C75.4426 42.6415 75.1881 42.7003 74.945 42.7907L74.8815 42.808C74.0654 43.0121 73.2438 43.2058 72.3739 43.3899C71.5462 43.5519 70.1524 44.1297 69.6175 43.341C69.5623 43.2574 69.5067 43.1579 69.4887 43.0681C69.2498 42.4053 69.1383 41.7236 68.9849 41.0695L68.5029 38.8582L68.0248 36.8218C67.8537 36.0938 67.7515 35.587 67.608 34.9008L67.5903 34.8269C67.5591 34.6261 67.5275 34.4093 67.4803 34.2089C67.4488 33.9921 67.4494 33.7853 67.5139 33.577C67.5421 33.4119 67.624 33.2616 67.7597 33.1365C67.8794 33.0118 68.0427 32.9286 68.2177 32.8875C68.3608 32.8524 68.5044 32.8386 68.6373 32.8249C68.7649 32.8114 68.8939 32.8615 69.0445 32.9218C69.1202 32.9678 69.2072 33.0454 69.2786 33.1392C69.3338 33.2228 69.3898 33.3382 69.435 33.4539C69.4807 33.5855 69.5419 33.7007 69.5713 33.8221C69.5689 33.9494 69.5983 34.0707 69.622 34.1763L69.6869 34.4506L71.2998 41.6216L74.4283 40.9249L75.1705 40.7543C75.2977 40.7249 75.4572 40.7054 75.6059 40.6861C75.7654 40.6665 75.8985 40.6635 76.0318 40.6658C76.1651 40.6681 76.2726 40.7081 76.3536 40.754C76.5046 40.8301 76.5916 40.9077 76.6472 41.0072C76.6974 41.1068 76.7505 41.3337 76.7799 41.455Z" fill="white"/>
<path d="M84.1754 31.8872C84.1827 32.0066 84.1734 32.1462 84.165 32.2548C84.1404 32.3629 84.0783 32.4752 83.9733 32.5862C83.8803 32.651 83.7501 32.7043 83.6257 32.7423C83.4847 32.7953 83.334 32.8169 83.1612 32.8587C83.0158 32.8805 82.8547 32.8915 82.6883 32.8972L81.8559 32.9411C81.4688 32.9768 81.0929 32.9973 80.717 33.0178C80.8211 34.2644 80.8636 35.7891 81.0583 39.137L81.1274 40.2946C81.1301 40.3879 81.1338 40.4451 81.1584 40.5235C81.1616 40.6013 81.1703 40.6741 81.1569 40.767C81.1435 40.8599 81.1351 40.9685 81.1264 41.0874C81.1344 41.1809 81.105 41.2734 81.0805 41.3815C81.0362 41.4321 81.0192 41.4627 81.0188 41.4782L80.9733 41.5702C80.916 41.6981 80.8061 41.7935 80.6804 41.8781C80.4572 41.9961 80.1825 42.0402 79.8888 41.9956C79.7066 41.9905 79.5577 41.95 79.4578 41.8798C79.353 41.794 79.2854 41.7195 79.2292 41.6195C79.1574 41.5034 79.1172 41.409 79.0987 41.3049C79.0583 41.2156 79.0403 41.0959 79.0318 41.018L78.5725 33.1956C78.3147 33.2091 76.7149 33.278 76.4208 33.249C76.287 33.24 75.9445 33.2148 75.7795 33.1739C75.5342 33.1255 75.3649 33.043 75.2238 32.9146C75.1038 32.7972 75.0275 32.65 75.0162 32.4838C75.0088 32.3644 75.0016 32.2399 75.0261 32.1317C75.0507 32.0236 75.1289 31.9118 75.2711 31.8122C75.348 31.747 75.5552 31.6285 75.7282 31.5763C75.8531 31.5229 76.0312 31.4812 76.2087 31.4603C76.3864 31.4343 76.5474 31.4284 76.7461 31.4185C77.5087 31.3778 78.1638 31.3445 78.9107 31.2878C80.1625 31.2039 81.4185 31.1565 82.6582 31.1189C82.937 31.1216 83.1994 31.1342 83.4648 31.2297C83.6617 31.2819 83.8472 31.3597 83.9721 31.4928C84.0922 31.605 84.1636 31.7366 84.1754 31.8872Z" fill="white"/>
<path d="M94.9965 32.5797L94.9337 33.2306L94.0643 41.4892L94.0488 41.6465C94.0415 41.7116 94.0172 41.8033 93.9759 41.9272C93.9512 42.0352 93.889 42.1421 93.8317 42.2655C93.7749 42.3726 93.6971 42.4627 93.5773 42.5297C93.4728 42.619 93.3218 42.6525 93.1394 42.6632C92.8278 42.6972 92.5512 42.6398 92.3196 42.5076C92.1993 42.4169 92.1115 42.3108 92.0572 42.1623C92.0261 42.1287 92.0164 42.0958 92.0013 42.0627C92.0023 42.0301 91.9926 41.9971 91.9776 41.964C91.9383 41.8486 91.9365 41.7343 91.9298 41.6035C91.9381 41.5059 91.9307 41.3968 91.9289 41.2825C91.9052 41.1839 91.913 41.1025 91.9212 41.0103C91.9605 40.9517 91.9683 40.8703 91.9767 40.7726L92.1117 39.5147L92.3125 37.508L91.4369 37.4268L88.1476 37.1304L87.7645 40.8887L87.749 41.046C87.7416 41.111 87.7174 41.2028 87.6761 41.3266C87.6513 41.4347 87.5892 41.5416 87.5318 41.6649C87.475 41.772 87.3973 41.8621 87.2774 41.9292C87.1729 42.0185 87.022 42.0519 86.8396 42.0627C86.528 42.0967 86.2513 42.0393 86.02 41.9016C85.8996 41.8109 85.8225 41.7052 85.7414 41.5558C85.7264 41.5227 85.7167 41.4898 85.7177 41.4572L85.6779 41.358C85.6386 41.2426 85.6368 41.1283 85.6299 41.003C85.6383 40.9053 85.615 40.7904 85.613 40.6815C85.6053 40.5833 85.6132 40.502 85.6374 40.4102L85.6608 40.1716L85.7958 38.9136L86.0443 36.5765C86.1236 35.9098 86.189 35.1774 86.2606 34.4126C86.3163 33.6472 86.3806 33.1215 86.4832 32.3957L86.4906 32.3306C86.5236 32.1249 86.547 31.8863 86.586 31.6644C86.6191 31.4587 86.6896 31.2541 86.824 31.0624C86.9037 30.9071 87.0299 30.8076 87.1829 30.7089C87.3509 30.6433 87.5338 30.6162 87.7153 30.6327C87.8755 30.6484 88.0032 30.6741 88.1361 30.7054C88.2797 30.737 88.3899 30.811 88.4932 30.9339C88.5659 31.0068 88.6276 31.0903 88.6455 31.2051C88.6843 31.3369 88.7022 31.4516 88.7089 31.5824C88.7097 31.7293 88.7005 31.8542 88.6858 31.9843L88.623 32.6352L88.3443 35.2596C88.5205 35.2759 88.734 35.2987 89.0442 35.3082C90.1601 35.413 91.2643 35.5502 92.4761 35.6688L92.4921 35.6693C92.5799 34.7308 92.6754 33.8851 92.7956 32.9368C92.8126 32.7306 92.8521 32.4924 92.891 32.2706C92.9241 32.0648 92.9946 31.8603 93.129 31.6685C93.1927 31.5127 93.3296 31.4136 93.5038 31.321C93.6557 31.2549 93.8388 31.2224 94.0204 31.2388C94.1805 31.2546 94.3294 31.2864 94.4411 31.3115C94.5688 31.3372 94.7109 31.4177 94.7982 31.54C94.887 31.6135 94.9326 31.6965 94.9505 31.8113C94.9893 31.943 94.9912 32.0573 95.0299 32.1891C95.0204 32.3248 95.0057 32.4549 94.9965 32.5797Z" fill="white"/>
<path d="M105.898 36.0185C105.831 36.1267 105.741 36.2427 105.642 36.3419C105.536 36.456 105.422 36.548 105.294 36.6226C105.18 36.7146 105.067 36.7963 104.97 36.8798L104.687 37.068L101.817 39.1774L101.323 39.4937L100.081 43.4057C100.016 43.4983 99.9889 43.5849 99.9372 43.7001C99.8791 43.7777 99.8364 43.8624 99.755 43.9531C99.7305 43.9765 99.7059 44 99.6969 44.0306C99.6723 44.0541 99.649 44.0672 99.6227 44.1063C99.5258 44.1898 99.4046 44.2494 99.2692 44.2914C99.0148 44.3299 98.7286 44.2696 98.463 44.1273C98.3286 44.0692 98.198 43.9798 98.1354 43.8669C98.059 43.7786 98.0231 43.6688 97.992 43.5648C97.9962 43.4387 97.9657 43.3295 97.9787 43.2202C97.9738 43.1246 98.0082 43.0178 98.033 42.9468L99.3096 38.928L99.126 38.3256L97.9517 34.9984L97.8644 34.6819C97.8279 34.5773 97.7839 34.4454 97.7303 34.3018C97.6721 34.1524 97.6428 34.0328 97.6226 33.8826C97.5798 33.7403 97.5757 33.592 97.571 33.449C97.5733 33.3384 97.6077 33.2316 97.6498 33.1522C97.7242 33.029 97.8211 32.9455 97.9422 32.8859C98.0615 32.842 98.1916 32.7993 98.3352 32.7794C98.5266 32.7229 98.7082 32.7496 98.874 32.8168C99.0941 32.8851 99.2191 33.0213 99.3637 33.1756C99.5094 33.3671 99.6466 33.5839 99.729 33.8048C99.8256 34.0432 99.9306 34.2562 100.005 34.5025L100.034 34.5746C100.339 35.3444 100.583 36.0331 100.846 36.8401C100.861 36.8947 100.913 37.0539 100.978 37.2359C101.099 37.1288 101.237 37.0237 101.277 37.0021C101.974 36.4881 102.565 36.0408 103.262 35.5744L103.311 35.5274C103.521 35.3993 103.724 35.2491 103.942 35.106C104.137 34.9708 104.393 34.8744 104.634 34.8184C104.825 34.7619 105.018 34.7424 105.215 34.7711C105.406 34.8148 105.584 34.915 105.693 35.0441C105.794 35.1564 105.902 35.2536 105.956 35.3497C106.023 35.4685 106.052 35.5881 106.057 35.7364C106.029 35.8334 106.001 35.9252 105.898 36.0185Z" fill="white"/>
</svg>