<svg width="24" height="24" viewBox="0 0 24 24" fill="none" xmlns="http://www.w3.org/2000/svg">
<path d="M4.67669 15.6403C4.48975 15.6403 4.33024 15.5723 4.19814 15.4361C4.06605 15.2999 4 15.1355 4 14.9429C4 14.7489 4.06605 14.5835 4.19814 14.4466C4.33024 14.3098 4.48975 14.2413 4.67669 14.2413H19.3279C19.5118 14.2413 19.6698 14.3099 19.8019 14.4469C19.934 14.584 20 14.7488 20 14.9412C20 15.1368 19.934 15.3022 19.8019 15.4374C19.6698 15.5727 19.5118 15.6403 19.3279 15.6403H4.67669ZM4.67669 9.7538C4.48975 9.7538 4.33024 9.68572 4.19814 9.54957C4.06605 9.41341 4 9.24901 4 9.05637C4 8.86237 4.06605 8.69694 4.19814 8.56007C4.33024 8.42322 4.48975 8.3548 4.67669 8.3548H19.3279C19.5118 8.3548 19.6698 8.42334 19.8019 8.56042C19.934 8.69751 20 8.86225 20 9.05465C20 9.25025 19.934 9.41567 19.8019 9.55092C19.6698 9.68617 19.5118 9.7538 19.3279 9.7538H4.67669Z" fill="black"/>
</svg>
