<svg width="24" height="24" viewBox="0 0 24 24" fill="none" xmlns="http://www.w3.org/2000/svg">
<path d="M12 11.7125C11.0593 11.7125 10.2576 11.3812 9.59496 10.7185C8.93231 10.0559 8.60099 9.25419 8.60099 8.31349C8.60099 7.37279 8.93231 6.57112 9.59496 5.90847C10.2576 5.24582 11.0593 4.91449 12 4.91449C12.9407 4.91449 13.7424 5.24582 14.405 5.90847C15.0677 6.57112 15.399 7.37279 15.399 8.31349C15.399 9.25419 15.0677 10.0559 14.405 10.7185C13.7424 11.3812 12.9407 11.7125 12 11.7125ZM4.68176 17.6269V16.9419C4.68176 16.4656 4.8093 16.0275 5.06436 15.6279C5.31943 15.2282 5.6667 14.9194 6.10616 14.7015C7.08306 14.2303 8.06264 13.8747 9.04489 13.6349C10.0271 13.395 11.0122 13.275 12.0001 13.275C12.9881 13.275 13.9735 13.3949 14.9564 13.6346C15.9393 13.8744 16.9188 14.2299 17.895 14.7012C18.3341 14.9191 18.6811 15.2279 18.9359 15.6276C19.1908 16.0274 19.3182 16.4654 19.3182 16.9419V17.6269C19.3182 18.0209 19.1803 18.3558 18.9046 18.6316C18.6289 18.9073 18.294 19.0452 17.9 19.0452H6.09999C5.70597 19.0452 5.3711 18.9073 5.09536 18.6316C4.81963 18.3558 4.68176 18.0209 4.68176 17.6269ZM6.08076 17.6462H17.9192V16.9445C17.9192 16.738 17.8606 16.548 17.7433 16.3746C17.6259 16.2011 17.4641 16.0583 17.2577 15.9462C16.4004 15.5269 15.5331 15.2101 14.6556 14.9957C13.7782 14.7812 12.8928 14.674 11.9994 14.674C11.1001 14.674 10.2133 14.7812 9.33871 14.9957C8.46418 15.2101 7.60031 15.5269 6.74711 15.9462C6.5375 16.0583 6.37403 16.2014 6.25671 16.3755C6.13941 16.5495 6.08076 16.7388 6.08076 16.9433V17.6462ZM12 10.3135C12.55 10.3135 13.0208 10.1177 13.4125 9.72599C13.8042 9.33432 14 8.86349 14 8.31349C14 7.76349 13.8042 7.29266 13.4125 6.90099C13.0208 6.50932 12.55 6.31349 12 6.31349C11.45 6.31349 10.9792 6.50932 10.5875 6.90099C10.1958 7.29266 9.99999 7.76349 9.99999 8.31349C9.99999 8.86349 10.1958 9.33432 10.5875 9.72599C10.9792 10.1177 11.45 10.3135 12 10.3135Z" fill="black"/>
</svg>
