<svg width="24" height="24" viewBox="0 0 24 24" fill="none" xmlns="http://www.w3.org/2000/svg">
<path d="M12 11.7125C11.0564 11.7125 10.254 11.3819 9.59281 10.7207C8.9316 10.0595 8.60099 9.25707 8.60099 8.31349C8.60099 7.36991 8.9316 6.56751 9.59281 5.90629C10.254 5.24509 11.0564 4.91449 12 4.91449C12.9436 4.91449 13.746 5.24509 14.4072 5.90629C15.0684 6.56751 15.399 7.36991 15.399 8.31349C15.399 9.25707 15.0684 10.0595 14.4072 10.7207C13.746 11.3819 12.9436 11.7125 12 11.7125ZM4.68176 17.6269V16.9419C4.68176 16.4656 4.8093 16.0275 5.06436 15.6279C5.31943 15.2282 5.6667 14.9194 6.10616 14.7015C7.08306 14.2303 8.06264 13.8747 9.04489 13.6349C10.0271 13.395 11.0122 13.275 12.0001 13.275C12.9881 13.275 13.9735 13.3949 14.9564 13.6346C15.9393 13.8744 16.9188 14.2299 17.895 14.7012C18.3341 14.9191 18.6811 15.2279 18.9359 15.6276C19.1908 16.0274 19.3182 16.4654 19.3182 16.9419V17.6269C19.3182 18.0209 19.1803 18.3558 18.9046 18.6316C18.6289 18.9073 18.294 19.0452 17.9 19.0452H6.09999C5.70597 19.0452 5.3711 18.9073 5.09536 18.6316C4.81963 18.3558 4.68176 18.0209 4.68176 17.6269Z" fill="black"/>
</svg>
