<svg xmlns="http://www.w3.org/2000/svg" height="24" viewBox="0 -960 960 960" width="24"><path d="M452.116-468.884V-788.73q0-11.462 8.115-19.673 8.115-8.211 19.769-8.211 11.654 0 19.865 8.211 8.211 8.211 8.211 19.673v319.846q0 11.654-8.211 19.865-8.211 8.211-19.865 8.211-11.654 0-19.769-8.211-8.115-8.211-8.115-19.865Zm27.902 321.613q-68.556 0-129.087-26.263-60.532-26.264-105.832-71.565-45.301-45.3-71.565-105.832-26.263-60.531-26.263-129.258 0-65.965 25.327-125.83 25.326-59.865 71.308-106.943 8.403-8.922 20.529-9.307 12.126-.384 20.912 8.423 8.499 8.5 7.153 20.058-1.346 11.557-9.846 20.672-37.961 37.885-58.692 87.596-20.731 49.712-20.731 105.385 0 115.02 81.056 195.962t195.834 80.942q115.571 0 196.11-81.021 80.538-81.02 80.538-195.748 0-55.808-20.504-105.87-20.505-50.063-58.535-87.669-8.692-8.807-10.134-20.307-1.442-11.5 7.057-20 8.808-8.807 21.077-8.269 12.269.539 20.961 9.346 46.385 46.885 71.211 106.75 24.827 59.865 24.827 125.85 0 68.748-26.313 129.297-26.314 60.55-71.308 105.864-44.993 45.315-105.469 71.526-60.477 26.211-129.621 26.211Z"/></svg>