<svg width="24" height="24" viewBox="0 0 24 24" fill="none" xmlns="http://www.w3.org/2000/svg">
<path d="M9.55586 15.4942C7.88316 15.4942 6.46866 14.9157 5.31236 13.7586C4.15604 12.6016 3.57788 11.1891 3.57788 9.52115C3.57788 7.85324 4.15554 6.44043 5.31086 5.28273C6.46617 4.12505 7.87867 3.5462 9.54836 3.5462C11.218 3.5462 12.6317 4.12514 13.7894 5.283C14.9471 6.44087 15.5259 7.85434 15.5259 9.5234C15.5259 10.2219 15.4086 10.8949 15.174 11.5423C14.9394 12.1898 14.6262 12.7503 14.2346 13.2239L19.9433 18.9189C20.0766 19.0518 20.1448 19.2146 20.148 19.4072C20.1512 19.5999 20.0812 19.767 19.938 19.9087C19.7947 20.0503 19.6291 20.1212 19.4413 20.1212C19.2535 20.1212 19.0898 20.0514 18.9502 19.9119L13.247 14.2029C12.7516 14.6157 12.1814 14.9341 11.5365 15.1582C10.8916 15.3822 10.2314 15.4942 9.55586 15.4942ZM9.55191 14.0952C10.832 14.0952 11.9146 13.6534 12.7995 12.7697C13.6844 11.886 14.1269 10.8026 14.1269 9.51965C14.1269 8.23669 13.6844 7.15354 12.7995 6.2702C11.9146 5.38687 10.8312 4.9452 9.54951 4.9452C8.26777 4.9452 7.18524 5.38706 6.30191 6.27078C5.41857 7.1545 4.97691 8.23783 4.97691 9.52078C4.97691 10.8037 5.41871 11.8869 6.30231 12.7702C7.18591 13.6536 8.26911 14.0952 9.55191 14.0952Z" fill="black"/>
</svg>
