<svg width="24" height="24" viewBox="0 0 24 24" fill="none" xmlns="http://www.w3.org/2000/svg">
<path d="M9.9065 15.8098C8.25804 15.8098 6.86151 15.2378 5.71691 14.0937C4.5723 12.9496 4 11.5537 4 9.90595C4 8.25825 4.57185 6.86199 5.71556 5.7172C6.85927 4.5724 8.25469 4 9.90184 4C11.549 4 12.9448 4.5725 14.0892 5.71749C15.2336 6.86249 15.8058 8.25949 15.8058 9.90851C15.8058 10.5682 15.7067 11.1904 15.5084 11.7751C15.3102 12.3597 15.0395 12.873 14.6963 13.315L19.7133 18.3282C19.9044 18.5227 20 18.7535 20 19.0205C20 19.2875 19.9017 19.5175 19.7051 19.7105C19.5122 19.9035 19.2814 20 19.0126 20C18.7439 20 18.514 19.9045 18.323 19.7135L13.3149 14.6999C12.8671 15.0509 12.351 15.3236 11.7667 15.5181C11.1824 15.7126 10.5623 15.8098 9.9065 15.8098ZM9.90289 13.8453C11.0043 13.8453 11.9361 13.464 12.6985 12.7014C13.4608 11.9388 13.842 11.0067 13.842 9.9049C13.842 8.80314 13.4608 7.87097 12.6985 7.10838C11.9361 6.34579 11.0043 5.96449 9.90289 5.96449C8.8015 5.96449 7.86965 6.34579 7.10732 7.10838C6.34499 7.87097 5.96382 8.80314 5.96382 9.9049C5.96382 11.0067 6.34499 11.9388 7.10732 12.7014C7.86965 13.464 8.8015 13.8453 9.90289 13.8453Z" fill="black"/>
</svg>
